<?xml version="1.0" encoding="utf-8"?>
<!-- Generator: Adobe Illustrator 24.1.0, SVG Export Plug-In . SVG Version: 6.00 Build 0)  -->
<svg version="1.1" id="Layer_1" xmlns="http://www.w3.org/2000/svg" xmlns:xlink="http://www.w3.org/1999/xlink" x="0px" y="0px"
	 viewBox="0 0 496 496" style="enable-background:new 0 0 496 496;" xml:space="preserve">
<style type="text/css">
	.st0{fill:#FFFFFF;}
	.st1{fill:#351D0E;}
</style>
<g>
	<path class="st0" d="M165.7,495.9c-6.6,0-12.8-2.6-17.4-7.2L7.2,347.6C2.6,343,0,336.8,0,330.2c0-6.6,2.6-12.8,7.2-17.4l52.9-52.9
		c9.6-9.6,25.2-9.6,34.8,0L236,401c9.6,9.6,9.6,25.2,0,34.8l-52.9,52.9C178.5,493.3,172.3,495.9,165.7,495.9z"/>
	<path class="st0" d="M418.5,243.1c-6.3,0-12.6-2.4-17.4-7.2v0L260,94.8c-9.6-9.6-9.6-25.2,0-34.8l52.9-52.9
		c9.3-9.3,25.5-9.3,34.8,0l141.1,141.1c4.6,4.6,7.2,10.8,7.2,17.4c0,6.6-2.6,12.8-7.2,17.4l-52.9,52.9
		C431.1,240.7,424.8,243.1,418.5,243.1z"/>
</g>
<g>
	<path class="st1" d="M83.6,459.7c-3.2,3.2-9,3.2-12.2,0l-35.3-35.3c-3.4-3.4-3.4-8.8,0-12.2L54,394.4l-11.3-11.3L24.8,401
		c-9.6,9.6-9.6,25.2,0,34.8l35.3,35.3c4.6,4.6,10.8,7.2,17.4,7.2s12.8-2.6,17.4-7.2l17.8-17.9l-11.3-11.3L83.6,459.7z"/>
	<path class="st1" d="M412.4,36c3.4-3.4,8.8-3.4,12.2,0l35.3,35.3c1.6,1.6,2.5,3.8,2.5,6.1s-0.9,4.5-2.5,6.1L442,101.4l11.3,11.3
		l17.9-17.8c4.6-4.6,7.2-10.8,7.2-17.4s-2.6-12.8-7.2-17.4l-35.3-35.3c-9.6-9.6-25.2-9.6-34.8,0l-17.8,17.8l11.3,11.3L412.4,36z"/>
	<path class="st1" d="M209.6,309.4c7.4-7.4,9.8-17.8,7.5-27.3c5.9-0.9,11.5-3.5,16-8c7.4-7.4,9.8-17.8,7.5-27.3
		c5.9-0.9,11.5-3.5,16-8c5.4-5.4,8.4-12.7,8.4-20.4c0-0.2-0.1-0.5-0.1-0.7c0.2,0,0.5,0.1,0.7,0.1c7.4,0,14.7-2.8,20.4-8.4
		c11.2-11.2,11.2-29.5,0-40.7l-3.2-3.2l24-24l-11.3-11.3l-24,24l-9-9c-11.2-11.2-29.5-11.2-40.7,0c-5.8,5.8-8.5,13.4-8.4,21
		c-7.6-0.2-15.3,2.6-21,8.4c-7.4,7.4-9.8,17.8-7.5,27.3c-5.9,0.9-11.5,3.5-16,8c-7.4,7.4-9.8,17.8-7.5,27.3c-5.9,0.9-11.5,3.5-16,8
		c-10.3,10.3-11,26.4-2.4,37.7l-12.5,12.5l11.3,11.3l12.2-12.2l14.9,14.9c5.6,5.6,13,8.4,20.4,8.4C196.6,317.8,204,315,209.6,309.4z
		 M233.1,156.5c2.5-2.5,5.8-3.7,9-3.7c3.3,0,6.5,1.2,9,3.7l23.5,23.5c5,5,5,13.1,0,18.1c-5,5-13.1,5-18.1,0l-23.5-23.5
		C228.1,169.6,228.1,161.5,233.1,156.5z M203.7,185.9c2.5-2.5,5.8-3.7,9-3.7c3.3,0,6.5,1.2,9,3.7c0,0,0,0,0,0l23.5,23.5c0,0,0,0,0,0
		c2.4,2.4,3.7,5.6,3.7,9c0,3.4-1.3,6.6-3.7,9c-5,5-13.1,5-18.1,0L203.7,204C198.7,199,198.7,190.9,203.7,185.9z M180.2,221.2
		c2.5-2.5,5.8-3.7,9-3.7c3.2,0,6.5,1.2,9,3.7l17.7,17.7c0,0,0.1,0,0.1,0.1l5.8,5.8c5,5,5,13.1,0,18.1c-5,5-13.1,5-18.1,0l-23.5-23.5
		C175.2,234.3,175.2,226.2,180.2,221.2z M180.2,298.1l-23.5-23.5c-5-5-5-13.1,0-18.1c2.5-2.5,5.8-3.7,9-3.7c3.3,0,6.5,1.2,9,3.7
		l23.5,23.5c5,5,5,13.1,0,18.1C193.3,303.1,185.2,303.1,180.2,298.1z"/>
	<path class="st1" d="M368.7,200c0.5-8.8-2.4-17.2-8.3-23.8c-5.9-6.6-13.9-10.5-22.7-11c-8.8-0.5-17.2,2.4-23.8,8.3
		c-6.6,5.8-10.5,13.9-11,22.7l-2.7,47L195.5,347.8l0,0l-6.3,6.3l11.3,11.3l6.3-6.3l9.3,9.3c15.4,15.4,38.7,19.8,58.5,11.4
		l102.8,102.8l99.5-99.5L364.6,270.9L368.7,200z M397.8,326.7l-19.5,19.5l11.3,11.3l19.5-19.5l45,45L377.3,460l-45-45.1l49.4-49.4
		l-11.3-11.3L321,403.6l-43.4-43.4l-5.3,3c-14.6,8.2-33,5.7-44.8-6.1l-9.3-9.3l97.7-97.7l3.1-53c0.5-9.3,8.6-16.6,17.9-15.9
		c4.5,0.3,8.7,2.3,11.7,5.6c3,3.4,4.5,7.7,4.3,12.2l-4.5,78L397.8,326.7z"/>
	<rect x="344" y="84.6" transform="matrix(0.7071 -0.7071 0.7071 0.7071 35.284 276.9839)" class="st1" width="16" height="22.6"/>
	
		<rect x="368" y="108.6" transform="matrix(0.7071 -0.7071 0.7071 0.7071 25.3372 300.9705)" class="st1" width="16" height="22.6"/>
	
		<rect x="392" y="132.6" transform="matrix(0.7071 -0.7071 0.7071 0.7071 15.3951 324.9685)" class="st1" width="16" height="22.6"/>
	
		<rect x="88" y="340.6" transform="matrix(0.7071 -0.7071 0.7071 0.7071 -220.7254 170.936)" class="st1" width="16" height="22.6"/>
	
		<rect x="112" y="364.6" transform="matrix(0.7071 -0.7071 0.7071 0.7071 -230.6558 194.9622)" class="st1" width="16" height="22.6"/>
	
		<rect x="136" y="388.6" transform="matrix(0.7071 -0.7071 0.7071 0.7071 -240.6016 218.9352)" class="st1" width="16" height="22.6"/>
</g>
</svg>
