<?xml version="1.0" encoding="utf-8"?>
<!-- Generator: Adobe Illustrator 24.1.0, SVG Export Plug-In . SVG Version: 6.00 Build 0)  -->
<svg version="1.1" id="Layer_1" xmlns="http://www.w3.org/2000/svg" xmlns:xlink="http://www.w3.org/1999/xlink" x="0px" y="0px"
	 viewBox="0 0 480 480" style="enable-background:new 0 0 480 480;" xml:space="preserve">
<style type="text/css">
	.st0{fill:#FFFFFF;}
	.st1{fill:#351D0E;}
</style>
<g>
	<path class="st0" d="M448.2,84.3l-8.2-8.6c-44.1-46.2-117.4-47.6-163.2-3.2L240,108.2l-36.8-35.7C157.3,28.1,84.1,29.5,40,75.7
		l-8.2,8.6c-44,46.1-42.1,119.2,4.2,163l43,40.6h56L195,118.1c3.1-8.8,15.9-8,17.8,1.2L248,288.4l34.3-80.1c3.4-8,15-7.3,17.4,1.1
		l22.4,78.5h78.8l43-40.6C490.3,203.5,492.2,130.4,448.2,84.3z"/>
	<path class="st0" d="M375.5,311.9H304l-16-56l-36.4,85c-3.6,8.3-15.7,7.1-17.6-1.8l-34-163.2l-48,136h-47.5l25.4,24l110.1,104
		l110.1-104L375.5,311.9z"/>
</g>
<g>
	<path class="st1" d="M245.3,314.9l-40.4-194c-0.1-0.3-0.2-0.9-1.1-1c-0.9-0.1-1.2,0.5-1.3,0.8l-61.8,175.1H79.1v-16h50.3l58-164.5
		c2.6-7.4,9.7-12,17.4-11.5c7.8,0.5,14.1,6,15.7,13.7l30,144.2l24.3-56.8c2.9-6.8,9.6-10.9,16.9-10.4c7.4,0.5,13.5,5.4,15.5,12.5
		l20.8,72.7H401v16h-84.9L292,211.6c-0.1-0.3-0.2-0.8-1.1-0.9c-1-0.1-1.1,0.5-1.2,0.7L245.3,314.9z"/>
	<path class="st1" d="M243.2,354.5c-0.6,0-1.2,0-1.8-0.1c-7.6-0.8-13.6-6.1-15.2-13.6L198,205.6l-40.3,114.3H12v-16h134.3L202,146.2
		l39.8,191.3c0.1,0.3,0.2,0.9,1.1,1c0.9,0.1,1.2-0.5,1.3-0.8l45.3-105.7l20.5,71.8h158v16H298l-11.5-40.2L258.9,344
		C256.1,350.5,250.1,354.5,243.2,354.5z"/>
	<rect x="416" y="183.9" class="st1" width="16" height="16"/>
	<rect x="384" y="183.9" class="st1" width="16" height="16"/>
	<rect x="352" y="183.9" class="st1" width="16" height="16"/>
	<rect x="112" y="183.9" class="st1" width="16" height="16"/>
	<rect x="80" y="183.9" class="st1" width="16" height="16"/>
	<rect x="48" y="183.9" class="st1" width="16" height="16"/>
</g>
</svg>
