<svg id="Layer_1" data-name="Layer 1" xmlns="http://www.w3.org/2000/svg" viewBox="0 0 109.85 103.5"><defs><style>.cls-1{fill:#2ca8d6;}.cls-2{fill:#6be3f8;}.cls-3{fill:#4cdec1;}</style></defs><title>logofiteflow</title><circle class="cls-1" cx="54.92" cy="51.75" r="39.86"/><path class="cls-2" d="M42,34.15a5.28,5.28,0,0,1,5.51-5.43,5.56,5.56,0,0,1,5,3.07l-4.23,2c-.11-.31-.32-.71-.74-.71a.45.45,0,0,0-.51.5v2.33h3.82v4.29H47V50.62H42V40.16H40.63V35.87H42Z"/><path class="cls-2" d="M53.13,30.15h5.35v4.29H53.13Zm.21,13.09V35.87h5v7.37Z"/><path class="cls-2" d="M67.75,51.09A5.46,5.46,0,0,1,62,45.24V40.16H60.31V35.87H62v-4.6h5v4.6h2.23v4.29H67v5.19a1.41,1.41,0,0,0,1.45,1.46h.8v4.28Z"/><path class="cls-3" d="M51.8,50.36a2.86,2.86,0,0,1-.37-1.42c0-2,1.57-3.23,3.66-3.23a3.74,3.74,0,0,1,2.39.81,3,3,0,0,1,1.1,2.28c0,1.2-.5,2-1.93,2.66l-.43.21,1.64,1.92a7.49,7.49,0,0,0,.56-1.18l2.29,1.21c-.2.42-.38.77-.53,1a10.33,10.33,0,0,1-.63.91l1.7,2H57.7l-.22-.25a5.52,5.52,0,0,1-2.38.51c-2.23,0-4.74-1.33-4.74-3.85a3.48,3.48,0,0,1,1.88-3A4.56,4.56,0,0,1,51.8,50.36Zm2,2.58a1.19,1.19,0,0,0-.17,2,2,2,0,0,0,1.43.53,2.13,2.13,0,0,0,.8-.13Zm.86-3.13a4,4,0,0,0,.9-.5.82.82,0,0,0,.48-.67c0-.44-.38-.71-1.14-.71s-1,.4-1,.74a.47.47,0,0,0,.15.38Z"/><path class="cls-2" d="M33.07,58.67a4.26,4.26,0,0,1,4.45-4.39,4.48,4.48,0,0,1,4,2.49l-3.42,1.58c-.09-.26-.26-.58-.6-.58a.37.37,0,0,0-.41.41v1.88h3.08v3.47H37.11V72h-4V63.53H32V60.06h1.07Z"/><path class="cls-2" d="M46.3,72h-4V54.67h4Z"/><path class="cls-2" d="M54.17,59.68A6.35,6.35,0,1,1,47.39,66,6.58,6.58,0,0,1,54.17,59.68Zm0,9.22A2.89,2.89,0,1,0,51.54,66,2.75,2.75,0,0,0,54.17,68.9Z"/><path class="cls-2" d="M67.06,66.37h.15l.45-1.82L69,60.06h3.21l1.3,4.49.45,1.82h.15l.58-1.82,1.6-4.49h4.28L76.07,72H72.26L71,67.79l-.38-2h-.17l-.39,2L68.86,72H65.07L60.64,60.06h4.28l1.59,4.49Z"/></svg>