<svg xmlns="http://www.w3.org/2000/svg" xmlns:xlink="http://www.w3.org/1999/xlink" viewBox="0 0 77.18 16.65"><defs><style>.cls-1{fill:none;}.cls-2{clip-path:url(#clip-path);}.cls-3{fill:#6be3f8;}.cls-4{fill:#4cdec1;}</style><clipPath id="clip-path" transform="translate(0 0)"><rect class="cls-1" width="77.18" height="16.65"/></clipPath></defs><g id="Layer_2" data-name="Layer 2"><g id="Layer_1-2" data-name="Layer 1"><g id="logo_h"><g class="cls-2"><g class="cls-2"><path class="cls-3" d="M1,4A3.93,3.93,0,0,1,5.08,0,4.15,4.15,0,0,1,8.79,2.29L5.64,3.74c-.08-.23-.24-.53-.56-.53a.34.34,0,0,0-.37.38V5.32H7.55V8.51H4.71V16.3H1V8.51H0V5.32H1Z" transform="translate(0 0)"/><path class="cls-3" d="M9.31,1.06h4v3.2h-4Zm.15,4.26h3.73v5.49H9.46Z" transform="translate(0 0)"/><path class="cls-3" d="M20.19,16.65a4.06,4.06,0,0,1-4.28-4.35V8.51H14.65V5.32h1.26V1.89h3.73V5.32h1.65V8.51H19.62v3.87a1,1,0,0,0,1.08,1.08h.59v3.19Z" transform="translate(0 0)"/><path class="cls-4" d="M24.34,11.12a2.11,2.11,0,0,1-.28-1,2.46,2.46,0,0,1,2.73-2.41,2.7,2.7,0,0,1,1.77.61A2.14,2.14,0,0,1,29.38,10c0,.89-.37,1.46-1.43,2l-.32.16,1.22,1.42a5.37,5.37,0,0,0,.42-.87l1.7.89c-.15.32-.28.58-.39.77a7.15,7.15,0,0,1-.47.67l1.26,1.48H28.73l-.17-.19a4.09,4.09,0,0,1-1.76.38c-1.66,0-3.54-1-3.54-2.86a2.58,2.58,0,0,1,1.41-2.2,2.73,2.73,0,0,1-.33-.47M25.8,13a.88.88,0,0,0-.13,1.5,1.68,1.68,0,0,0,1.66.3Zm.63-2.33a2.82,2.82,0,0,0,.68-.37.63.63,0,0,0,.36-.5c0-.33-.29-.53-.85-.53s-.76.3-.76.55a.36.36,0,0,0,.11.29Z" transform="translate(0 0)"/><path class="cls-3" d="M33.84,4.15a3.89,3.89,0,0,1,4.06-4,4.11,4.11,0,0,1,3.67,2.26L38.45,3.86c-.08-.24-.24-.53-.55-.53a.33.33,0,0,0-.37.37V5.42h2.81V8.58H37.53V16.3H33.84V8.58h-1V5.42h1Z" transform="translate(0 0)"/><rect class="cls-3" x="42.22" y="0.5" width="3.69" height="15.8"/><path class="cls-3" d="M53.11,5.07a6,6,0,0,1,6.19,5.8,6.21,6.21,0,0,1-12.39,0,6,6,0,0,1,6.2-5.8m0,8.42a2.5,2.5,0,0,0,2.4-2.62,2.42,2.42,0,1,0-4.81,0,2.51,2.51,0,0,0,2.41,2.62" transform="translate(0 0)"/><polygon class="cls-3" points="64.87 11.18 65.01 11.18 65.42 9.52 66.61 5.42 69.54 5.42 70.73 9.52 71.14 11.18 71.28 11.18 71.81 9.52 73.27 5.42 77.18 5.42 73.09 16.3 69.62 16.3 68.5 12.47 68.15 10.68 68 10.68 67.64 12.47 66.51 16.3 63.05 16.3 59.01 5.42 62.92 5.42 64.36 9.52 64.87 11.18"/></g></g></g></g></g></svg>