<?xml version="1.0" encoding="utf-8"?>
<!-- Generator: Adobe Illustrator 24.1.0, SVG Export Plug-In . SVG Version: 6.00 Build 0)  -->
<svg version="1.1" id="Layer_1" xmlns="http://www.w3.org/2000/svg" xmlns:xlink="http://www.w3.org/1999/xlink" x="0px" y="0px"
	 viewBox="0 0 496 496" style="enable-background:new 0 0 496 496;" xml:space="preserve">
<style type="text/css">
	.st0{fill:#FFFFFF;}
	.st1{fill:#351D0E;}
</style>
<g>
	<path class="st0" d="M376,368c-22.1,0-40-17.9-40-40v-8c0-13.2-10.8-24-24-24s-24,10.8-24,24v8c0,22.1-17.9,40-40,40
		s-40-17.9-40-40v-8c0-13.2-10.8-24-24-24s-24,10.8-24,24v8c0,22.1-17.9,40-40,40s-40-17.9-40-40v-8c0-13.2-10.8-24-24-24
		s-24,10.8-24,24H16c0-22.1,17.9-40,40-40s40,17.9,40,40v8c0,13.2,10.8,24,24,24s24-10.8,24-24v-8c0-22.1,17.9-40,40-40
		s40,17.9,40,40v8c0,13.2,10.8,24,24,24s24-10.8,24-24v-8c0-22.1,17.9-40,40-40s40,17.9,40,40v8c0,13.2,10.8,24,24,24s24-10.8,24-24
		v-8c0-22.1,17.9-40,40-40s40,17.9,40,40h-16c0-13.2-10.8-24-24-24s-24,10.8-24,24v8C416,350.1,398.1,368,376,368z"/>
	<path class="st0" d="M410.5,200c3.5-8.3,5.5-17.2,5.5-26.4v-1.9c0-37.4-30.3-67.7-67.7-67.7c-22.6,0-43.8,11.3-56.4,30.2L248,200
		H410.5z"/>
</g>
<g>
	<path class="st1" d="M421.6,192c1.6-6.1,2.4-12.2,2.4-18.4v-1.8c0-19.7-7.6-37.6-20-51.1c14.4-9.2,33.8-7.5,46.3,5l8,8l11.3-11.3
		l-8-8c-10.2-10.2-23.7-15.4-37.1-15.5l5.1-5.1c14.5-14.5,38.2-14.5,52.7,0l11.3-11.3c-10.2-10.2-23.7-15.4-37.1-15.6l5.1-5.1
		c7.9-7.9,12.3-18.5,12.3-29.7s-4.4-21.7-12.3-29.7l-11.3,11.3c4.9,4.9,7.6,11.4,7.6,18.3s-2.7,13.4-7.6,18.3l-5.1,5.1
		c-0.1-13.5-5.3-26.9-15.5-37.1l-8-8l-11.3,11.3l8,8c14.5,14.5,14.5,38.2,0,52.7l-5.1,5.1c-0.1-13.5-5.3-26.9-15.5-37.1l-8-8
		l-11.3,11.3l8,8c12.9,12.9,14.3,32.9,4.3,47.4c-12.1-8.2-26.7-13-42.4-13c-25.4,0-48.9,12.6-63,33.7L243.7,192H232v-32.5
		c28.6-3.4,48-25.2,48-55.5c0-17.5-7.3-28-13.2-33.7c2.6-5,5.2-12.4,5.2-22.3c0-26.9-21.1-48-48-48s-48,21.1-48,48
		c0,9.9,2.6,17.3,5.2,22.3C175.3,76,168,86.5,168,104c0,30.2,19.4,52,48,55.5V192h-7.8c-7.7-12.5-18.6-21.7-19.1-22.1l-5.2-4.3
		l-5.1,4.4c-0.2,0.1-1.3,1.2-3,2.8c-2.1-21.8-24.1-40.7-26.7-42.9l-5.1-4.2l-5.1,4.2c-0.5,0.4-1.6,1.4-3.1,2.8
		c-2.2-21.7-24.1-40.6-26.7-42.8l-5.2-4.3l-5.1,4.4c-1.5,1.2-9,7.9-15.7,17.3c-2.1-5.5-4.3-7.7-5.5-8.9C61.3,82,20.8,80.2,16.3,80
		l-8.6-0.3L8,88.3c0.2,4.6,2.4,45.4,18.3,61.3c2,2,5,3.7,9.1,5c-9.6,6.8-16.4,14.7-17.6,16.2l-4.2,5.1l4.2,5.1
		c0.9,1.1,4.9,5.8,10.9,10.9H0v40c0,83.5,42.6,161.6,112,207.3V496h272v-56.7c69.4-45.7,112-123.8,112-207.3v-40H421.6L421.6,192z
		 M184,104c0-18.2,11-24.5,11.7-24.9c2.2-1.1,3.7-3.3,4.2-5.7c0.4-2.5-0.4-5.1-2.1-6.9c-0.2-0.3-5.7-6.3-5.7-18.4
		c0-15.5,11.2-32,32-32s32,16.5,32,32c0,12.2-5.5,18.2-5.7,18.3c-1.8,1.8-2.6,4.3-2.2,6.8s2,4.7,4.2,5.9c0.5,0.3,11.7,6.5,11.7,24.9
		c0,25.3-15.8,36.6-32,39.3V120h-16v23.3C199.8,140.6,184,129.3,184,104z M298.5,138.6c0.6-0.8,1.2-1.6,1.8-2.4
		c26.3,2.5,51.8,26.6,61.8,37.2l11.6-11c-12.1-12.9-34.2-32.8-59.6-39.9c9.8-6.8,21.6-10.6,34-10.6c32.9,0,59.7,26.8,59.7,59.8v1.8
		c0,6.2-1,12.4-3,18.4h-41.5c-16.2-17.6-39.1-33.6-56.9-39.6l-5.1,15.2c11.6,3.9,26.4,13.3,39.1,24.4H263L298.5,138.6z M184.1,187.1
		c1.4,1.4,2.9,3.1,4.5,4.9h-8.8C181.2,190.1,182.7,188.5,184.1,187.1z M144,146.9c6.8,7,16,18.7,16,29.1c0,4.6-1.9,10.1-5.6,16
		h-20.8c-3.7-5.9-5.6-11.4-5.6-16C128,165.7,137.2,154,144,146.9z M104.2,187.5l4.5,4.5h-9.4C101.1,190.4,102.8,188.9,104.2,187.5z
		 M104.1,107c6.8,7,15.9,18.7,15.9,29c0,10.1-8.8,21.6-15.6,28.7c-1.4-1.4-2.9-2.8-4.7-4.4c-5.8-6.8-11.5-15.7-11.5-24
		C88.2,126,97.3,114.2,104.1,107z M24.7,96.6c14.9,1.5,34.3,5.7,41.6,13c1.7,1.7,4.2,8.3,5.2,22.5l-17.9-17.9l-11.3,11.3l17,17
		c-16.1-1.4-20.5-3.4-21.7-4.3C30.5,131.1,26.3,111.6,24.7,96.6z M34.9,176c7-6.9,18.7-16,29.1-16c8.3,0,17.4,5.9,24.4,11.8
		c1.5,1.7,2.9,3.2,4.3,4.6c-7,6.8-18.5,15.6-28.6,15.6C53.7,192,42,182.8,34.9,176z M365.5,432H352h0v16h0h16v32H128v-32h208v-16
		H130.5C62.1,391.7,19,318.9,16.3,240H448v-16H16v-16h109.2h26.4h11.1h53.9H480v16h-16v16h15.7C477,318.9,433.9,391.7,365.5,432z"/>
	<rect x="216" y="48" class="st1" width="16" height="56"/>
</g>
</svg>
