<?xml version="1.0" encoding="utf-8"?>
<!-- Generator: Adobe Illustrator 24.1.0, SVG Export Plug-In . SVG Version: 6.00 Build 0)  -->
<svg version="1.1" id="Layer_1" xmlns="http://www.w3.org/2000/svg" xmlns:xlink="http://www.w3.org/1999/xlink" x="0px" y="0px"
	 viewBox="0 0 497 497" style="enable-background:new 0 0 497 497;" xml:space="preserve">
<style type="text/css">
	.st0{fill:#FFFFFF;}
	.st1{fill:#351D0E;}
</style>
<g>
	<path class="st0" d="M13.6,184.3l-4.9,55.9h87.9v-55.9H13.6z"/>
	<path class="st0" d="M400.4,184.3v55.9h87.9l-4.9-55.9H400.4z"/>
	<path class="st0" d="M248.5,88.4c44.1,0,79.9-35.8,79.9-79.9h-32c0,26.5-21.5,48-48,48s-48-21.5-48-48h-32
		C168.6,52.6,204.4,88.4,248.5,88.4z"/>
</g>
<path class="st1" d="M481,384.1l-13.9-11c4.3-28.4,13.8-55.9,28.1-81l-13.9-7.9c-13.8,24.1-23.4,50.4-28.6,77.6l-44.4-35.2v-78.4
	H497L483,87.1c-1.9-22.2-16.9-41.2-38-48.2L329.7,0.5h-41.3v8c0,22-17.9,40-40,40c-22,0-40-17.9-40-40v-8h-41.3L52.1,38.9
	c-21.2,7.1-36.1,26-38,48.2L0,248.2h88.6V496h319.7v-24.9c24.3-2.8,38-11.3,43.2-15.3c1.5,0.2,2.9,0.2,4.4,0.2
	c22.2,0,40.3-18.1,40.3-40.3C496.3,403.3,490.7,391.8,481,384.1z M392.4,480H104.6V120.3h-16v111.9H17.4l1.4-16h53.8v-16H20.2
	l9.7-111.8C31.3,72.6,42,59.1,57.1,54l112.8-37.6h23.3c3.9,27.1,27.2,48,55.4,48s51.5-20.9,55.4-48h23.3L439.9,54
	c15.1,5,25.8,18.6,27.2,34.4l9.7,111.8h-52.4v16h53.8l1.4,16h-71.2V120.3h-16V314l-86.5-68.5l-19.4,21.1l105.9,133.8V456
	c-19.9,0-37-7.5-56.8-16.3c-25.2-11.1-53.7-23.7-95-23.7v16c37.9,0,63.7,11.4,88.6,22.3c20.6,9.1,40,17.6,63.3,17.6V480z M408.4,455
	v-34.5l16,20.2c2.4,3,5.2,5.6,8.2,7.7C427,451,419,453.6,408.4,455z M456,440.1c-7.5,0-14.4-3.4-19.1-9.2L307,266.8l143,113.2
	c-1.1,9.5-1.7,19-1.7,28.6v8.2l16-0.7v-7.5c0-5.6,0.2-11.2,0.6-16.8l6.1,4.8c5.9,4.6,9.2,11.6,9.2,19.1
	C480.3,429.1,469.4,440.1,456,440.1z"/>
</svg>
