<?xml version="1.0" encoding="utf-8"?>
<!-- Generator: Adobe Illustrator 24.1.0, SVG Export Plug-In . SVG Version: 6.00 Build 0)  -->
<svg version="1.1" id="Layer_1_1_" xmlns="http://www.w3.org/2000/svg" xmlns:xlink="http://www.w3.org/1999/xlink" x="0px" y="0px"
	 viewBox="0 0 512 512" style="enable-background:new 0 0 512 512;" xml:space="preserve">
<style type="text/css">
	.st0{fill:#FFFFFF;}
	.st1{fill:#351D0E;}
</style>
<g>
	<path class="st0" d="M182.3,336l25.9-9.1c26.3-9.9,50.5-24.5,71.5-43.1l0,0c26.5-23.5,47.1-52.9,60.3-85.8l12-30l-40-8l0,0
		c-26,41.6-64.5,73.8-110.1,92l-9.9,4L182.3,336z"/>
</g>
<g>
	<rect x="8" y="488" class="st1" width="16" height="16"/>
	<rect x="488" y="488" class="st1" width="16" height="16"/>
	<path class="st1" d="M464,450.3c0-19-10.2-36.8-26.7-46.4l-6.9-4c14.2-1,25.6-12.7,25.6-27.2v-1.2c0-15.1-12.3-27.4-27.4-27.4
		c-4.2,0-8.5,1-12.3,2.9l-7.3,3.7l-23.1-18.5c-7.4-5.9-13.1-13.6-16.6-22.3l-5.4-13.5c-2.6-6.5-3.9-13.3-3.9-20.3v-5.7l33.3-8.3
		l-13.7-68.6c-2.9-14.5-13.5-26.2-27.7-30.5L296,146v-18.9c9.9-10.1,16-23.9,16-39.1V64c0-30.9-25.1-56-56-56s-56,25.1-56,56v24
		c0,15.2,6.1,29,16,39.1V146l-55.9,16.8c-14.2,4.3-24.8,15.9-27.7,30.5l-13.7,68.6l33.3,8.3v5.7c0,7-1.3,13.8-3.9,20.2l-5.4,13.5
		c-3.5,8.7-9.2,16.4-16.6,22.3L103,350.6l-7.3-3.7c-3.8-1.9-8-2.9-12.3-2.9C68.3,344,56,356.3,56,371.4v1.2
		c0,14.5,11.3,26.3,25.6,27.2l-6.9,4C58.2,413.4,48,431.2,48,450.3c0,14.7,5.9,28,15.5,37.7H40v16h61.7h122.5h63.5h122.5H472v-16
		h-23.5C458.1,478.3,464,465,464,450.3z M314.8,433.9l-15.9-9.5l5.1-5.1V409c0-4.9,4-9,9-9c6.6,0,13-2.7,17.7-7.3l14.1-14.1
		c1.7-1.7,4-2.6,6.3-2.6c4.9,0,9,4,9,9c0,2.4-0.9,4.6-2.6,6.3L314.8,433.9z M154.6,391.3c-1.7-1.7-2.6-3.9-2.6-6.3c0-4.9,4-9,9-9
		c2.4,0,4.7,1,6.3,2.6l14.1,14.1c4.6,4.6,11.1,7.3,17.7,7.3c4.9,0,9,4,9,9v10.3l12.7,12.7L208,444.7L154.6,391.3z M232,420.7l-8-8
		V409c0-13.8-11.2-25-25-25c-2.4,0-4.7-1-6.3-2.6l-14.1-14.1c-1.8-1.8-4-3.3-6.3-4.5c3.4-2.3,6.5-5,9-8.2
		c12.9,7.1,42.6,21.4,74.7,21.4s61.8-14.2,74.7-21.3c2.6,3.2,5.6,5.9,9,8.2c-2.3,1.2-4.5,2.6-6.3,4.5l-14.1,14.1
		c-1.7,1.7-4,2.6-6.3,2.6c-13.8,0-25,11.2-25,25v3.7l-3.2,3.2l-30-18L232,420.7z M349,302.2l5.4,13.5c4.5,11.3,11.9,21.3,21.4,28.9
		l31.1,24.9l16.5-8.2c1.6-0.8,3.3-1.2,5.1-1.2c6.3,0,11.4,5.1,11.4,11.4v1.2c0,6.3-5.1,11.4-11.4,11.4h-18.5l-59.5-33
		c-5.3-2.9-9.4-7.7-11.7-13.3c-7.2-18.1-10.9-37.1-10.9-56.5v-2.9l16-4v1.7C344,285,345.7,293.8,349,302.2z M280,148.5
		c-5.2,4.5-15.3,11.5-24,11.5s-18.8-7.1-24-11.5v-9.9c7.3,3.5,15.4,5.5,24,5.5c8.6,0,16.7-2,24-5.5V148.5z M216,64
		c0-22.1,17.9-40,40-40s40,17.9,40,40v24c0,22.1-17.9,40-40,40s-40-17.9-40-40V64z M148.1,196.4c1.7-8.7,8.1-15.7,16.6-18.3L222,161
		c6.3,5.4,19.6,15,34,15s27.8-9.7,34-15l57.3,17.2c8.5,2.6,14.9,9.6,16.6,18.3l10.7,53.7L328,261.8v-25h-16v44.4
		c0,20.4,3.8,40.4,11,59.4c-11.4,6.3-38.6,19.4-67,19.4c-28.3,0-55.5-13.1-67-19.4c7.2-19.1,11-39,11-59.4V216h-16v45.8l-46.7-11.7
		L148.1,196.4z M72,372.6v-1.2c0-6.3,5.1-11.4,11.4-11.4c1.8,0,3.5,0.4,5.1,1.2l16.5,8.2l31.1-24.9c9.5-7.6,16.9-17.6,21.4-28.9
		l5.4-13.5c3.3-8.4,5-17.2,5-26.2v-1.7l16,4v2.9c0,19.4-3.7,38.5-10.9,56.5c-2.3,5.6-6.4,10.3-11.7,13.3l-59.5,33H83.4
		C77.1,384,72,378.9,72,372.6z M101.7,488C80.9,488,64,471.1,64,450.3c0-13.4,7.2-25.9,18.7-32.6l53.4-31.2
		c0.4,6.1,2.8,11.8,7.2,16.1l70.9,70.9c5.4,5.4,11.4,10.1,17.6,14.1c-2.5,0.2-5.1,0.4-7.6,0.4H101.7z M287.8,488
		c-23.5,0-45.6-9.2-62.2-25.8l-6.2-6.2l37.9-37.9l49.6,29.8l25,15l8.2-13.7l-11.2-6.7l39.8-39.8c4.4-4.3,6.8-10,7.2-16.1l53.4,31.2
		c11.5,6.7,18.7,19.2,18.7,32.6c0,20.8-16.9,37.7-37.7,37.7H287.8z"/>
</g>
</svg>
